<svg width="150" height="150" xmlns="http://www.w3.org/2000/svg">
 <defs>
  <style>.cls-1{fill:#1d1d1b;stroke:#000;stroke-miterlimit:10;stroke-width:0.5px;}.cls-2{fill:#fff;fill-rule:evenodd;}</style>
 </defs>
 <title>Zeichenfläche 1</title>
 <g>
  <title>background</title>
  <rect fill="none" id="canvas_background" height="152" width="152" y="-1" x="-1"/>
 </g>
 <g>
  <title>Layer 1</title>
  <rect id="svg_1" ry="19.64" rx="19.64" height="111.67" width="144.17" y="18.087575" x="2.787879" class="cls-1"/>
  <path id="svg_2" d="m27.977879,62.897575c-6.27,0 -10.83,-3.5 -10.83,-11.85l0,-5.13c0,-8.36 4.56,-11.85 10.83,-11.85s10.81,3.49 10.81,11.85l0,5.13c0,8.36 -4.56,11.85 -10.83,11.85m5.51,-17c0,-5 -1.79,-7.25 -5.51,-7.25s-5.51,2.24 -5.51,7.25l0,5.13c0,5 1.79,7.26 5.51,7.26s5.51,-2.24 5.51,-7.26l0,-5.13z" class="cls-2"/>
  <path id="svg_3" d="m52.397879,52.067575c-1,0 -2.51,-0.11 -3.38,-0.15l0,9.91a0.73,0.73 0 0 1 -0.72,0.76l-3.8,0a0.76,0.76 0 0 1 -0.76,-0.76l0,-26.13c0,-0.76 0.46,-1 1.22,-1.14a51.93,51.93 0 0 1 7.45,-0.49c5.85,0 10.94,2.05 10.94,8.77l0,0.34c0,6.72 -5.09,8.89 -10.94,8.89m5.7,-9.23c0,-3.19 -1.9,-4.41 -5.7,-4.41c-0.8,0 -2.7,0.08 -3.38,0.15l0,9c0.61,0 2.74,0.11 3.38,0.11c4.1,0 5.7,-1.52 5.7,-4.56l0,-0.29z" class="cls-2"/>
  <path id="svg_4" d="m83.507879,62.367575a35.84,35.84 0 0 1 -7.22,0.53c-4.94,0 -8.77,-1.33 -8.77,-7.79l0,-13.26c0,-6.46 3.84,-7.79 8.77,-7.79a35.76,35.76 0 0 1 7.22,0.53c0.57,0.08 0.76,0.26 0.76,0.8l0,2.43a0.76,0.76 0 0 1 -0.76,0.76l-7.72,0c-2.2,0 -3,0.76 -3,3.27l0,4.1l10.27,0a0.76,0.76 0 0 1 0.73,0.81l0,2.74a0.76,0.76 0 0 1 -0.76,0.76l-10.24,0l0,4.9c0,2.51 0.8,3.27 3,3.27l7.75,0a0.76,0.76 0 0 1 0.76,0.76l0,2.43c0,0.53 -0.19,0.72 -0.76,0.8" class="cls-2"/>
  <path id="svg_5" d="m109.227879,62.597575l-3.84,0a2,2 0 0 1 -2.32,-1.37l-8.42,-18.47c-0.11,-0.23 -0.23,-0.3 -0.34,-0.3s-0.19,0.08 -0.19,0.3l0,19.08a0.73,0.73 0 0 1 -0.72,0.76l-3.24,0a0.76,0.76 0 0 1 -0.76,-0.76l0,-25.95a1.52,1.52 0 0 1 1.52,-1.52l4.1,0c0.8,0 1.22,0.23 1.67,1.22l8.85,19.53c0.08,0.19 0.19,0.3 0.3,0.3s0.19,-0.11 0.19,-0.34l0,-20a0.7,0.7 0 0 1 0.72,-0.72l3.27,0a0.7,0.7 0 0 1 0.72,0.72l0,26a1.52,1.52 0 0 1 -1.52,1.52" class="cls-2"/>
  <path id="svg_6" d="m25.257879,103.697575a39.75,39.75 0 0 1 -6.57,-0.42c-1.25,-0.23 -1.82,-0.65 -1.82,-2.05l0,-23.93c0,-1.37 0.49,-1.86 1.71,-2.05a47.22,47.22 0 0 1 6.34,-0.38c6.88,0 11.7,2 11.7,7.71l0,0.76a6,6 0 0 1 -3.5,5.74a5.84,5.84 0 0 1 3.67,5.77l0,0.65c0,6 -4.48,8.21 -11.55,8.21m6.25,-20.83c0,-2.66 -1.71,-3.65 -6.57,-3.65c-0.91,0 -2,0 -2.77,0.08l0,7.71l4.82,0c3.53,0 4.52,-1.67 4.52,-3.61l0,-0.53zm0.15,12.53c0,-2.09 -1.1,-4 -4.67,-4l-4.82,0l0,7.85c0.91,0 2.32,0.08 3.11,0.08c4.86,0 6.38,-1.25 6.38,-3.91l0,-0.02z" class="cls-2"/>
  <path id="svg_7" d="m61.157879,103.397575l-4,0a0.8,0.8 0 0 1 -0.72,-0.65l-1.75,-7.22l-8.76,0l-1.75,7.23a0.8,0.8 0 0 1 -0.72,0.65l-4,0a0.65,0.65 0 0 1 -0.67,-0.65a1.65,1.65 0 0 0 0,-0.19l6.22,-23.81c0.91,-3.53 3.65,-3.87 5.28,-3.87s4.37,0.34 5.28,3.87l6.22,23.8a1.65,1.65 0 0 0 0,0.19a0.65,0.65 0 0 1 -0.68,0.65m-10.21,-23.48c-0.11,-0.46 -0.23,-0.61 -0.61,-0.61s-0.49,0.15 -0.61,0.61l-2.73,11.28l6.69,0l-2.74,-11.28z" class="cls-2"/>
  <path id="svg_8" d="m79.997879,79.577575l-6.65,0l0,23.06a0.76,0.76 0 0 1 -0.76,0.76l-3.8,0a0.76,0.76 0 0 1 -0.76,-0.76l0,-23.06l-6.61,0a0.7,0.7 0 0 1 -0.76,-0.68l0,-3a0.73,0.73 0 0 1 0.76,-0.72l18.58,0a0.73,0.73 0 0 1 0.76,0.72l0,3a0.7,0.7 0 0 1 -0.76,0.68" class="cls-2"/>
  <path id="svg_9" d="m93.297879,103.697575c-6.27,0 -10.83,-3.5 -10.83,-11.85l0,-5.09c0,-8.36 4.56,-11.85 10.83,-11.85s10.82,3.45 10.82,11.85l0,5.13c0,8.36 -4.56,11.85 -10.83,11.85m5.5,-16.98c0,-5 -1.78,-7.25 -5.51,-7.25s-5.49,2.2 -5.49,7.25l0,5.13c0,5 1.79,7.26 5.51,7.26s5.49,-2.29 5.49,-7.3l0,-5.09z" class="cls-2"/>
  <path stroke="null" style="vector-effect: non-scaling-stroke;" id="svg_10" d="m128.887879,103.397575l-3.84,0a2,2 0 0 1 -2.32,-1.37l-8.43,-18.5c-0.12,-0.23 -0.23,-0.3 -0.34,-0.3s-0.19,0.08 -0.19,0.3l0,19.11a0.73,0.73 0 0 1 -0.72,0.76l-3.26,0a0.76,0.76 0 0 1 -0.76,-0.76l0,-25.95a1.52,1.52 0 0 1 1.52,-1.52l4.1,0c0.8,0 1.22,0.23 1.67,1.22l8.85,19.53c0.08,0.19 0.19,0.3 0.3,0.3s0.19,-0.11 0.19,-0.34l0,-20a0.7,0.7 0 0 1 0.72,-0.72l3.27,0a0.7,0.7 0 0 1 0.72,0.72l0,26a1.52,1.52 0 0 1 -1.52,1.52" class="cls-2"/>
  <path id="svg_11" d="m130.427879,117.047575l-90.41,0a1.91,1.91 0 0 0 -1.84,-1.39l-19.47,0a1.92,1.92 0 1 0 0,3.83l19.47,0a1.91,1.91 0 0 0 1.84,-1.39l90.4,0l0.01,-1.05z" class="cls-2"/>
 </g>
</svg>