<?xml version="1.0" encoding="UTF-8" standalone="no"?>
<!-- Created with Inkscape (http://www.inkscape.org/) -->

<svg
   xmlns:dc="http://purl.org/dc/elements/1.1/"
   xmlns:cc="http://creativecommons.org/ns#"
   xmlns:rdf="http://www.w3.org/1999/02/22-rdf-syntax-ns#"
   xmlns:svg="http://www.w3.org/2000/svg"
   xmlns="http://www.w3.org/2000/svg"
   xmlns:sodipodi="http://sodipodi.sourceforge.net/DTD/sodipodi-0.dtd"
   xmlns:inkscape="http://www.inkscape.org/namespaces/inkscape"
   version="1.1"
   id="svg2"
   xml:space="preserve"
   width="554.66669"
   height="392"
   viewBox="0 0 554.66669 392"
   sodipodi:docname="Mail_Drake_V1.0.svg"
   inkscape:version="0.92.1 r15371"><metadata
     id="metadata8"><rdf:RDF><cc:Work
         rdf:about=""><dc:format>image/svg+xml</dc:format><dc:type
           rdf:resource="http://purl.org/dc/dcmitype/StillImage" /><dc:title></dc:title></cc:Work></rdf:RDF></metadata><defs
     id="defs6"><clipPath
       clipPathUnits="userSpaceOnUse"
       id="clipPath18"><path
         d="M 0,294 H 416 V 0 H 0 Z"
         id="path16"
         inkscape:connector-curvature="0" /></clipPath><clipPath
       clipPathUnits="userSpaceOnUse"
       id="clipPath50"><path
         d="M 0,294 H 416 V 0 H 0 Z"
         id="path48"
         inkscape:connector-curvature="0" /></clipPath><clipPath
       clipPathUnits="userSpaceOnUse"
       id="clipPath62"><path
         d="m 139,109.333 c 39.333,-18.666 95.833,-9.5 110.333,-5.666 v 0 C 267.5,112 277.75,123.75 279,142.75 v 0 c -8.75,-27 -65.669,-35.592 -105.666,-25.083 v 0 C 111.167,134 101.75,153 92,167.666 v 0 c 0,0 7.667,-39.666 47,-58.333"
         id="path60"
         inkscape:connector-curvature="0" /></clipPath><clipPath
       clipPathUnits="userSpaceOnUse"
       id="clipPath70"><path
         d="M -32768,32767 H 32767 V -32768 H -32768 Z"
         id="path68"
         inkscape:connector-curvature="0" /></clipPath><radialGradient
       fx="0"
       fy="0"
       cx="0"
       cy="0"
       r="1"
       gradientUnits="userSpaceOnUse"
       gradientTransform="matrix(70.551926,0,0,-564.41541,185.5,132.83997)"
       spreadMethod="pad"
       id="radialGradient76"><stop
         style="stop-opacity:0.4;stop-color:#ffffff"
         offset="0"
         id="stop72" /><stop
         style="stop-opacity:1;stop-color:#ffffff"
         offset="1"
         id="stop74" /></radialGradient><mask
       maskUnits="userSpaceOnUse"
       x="0"
       y="0"
       width="1"
       height="1"
       id="mask78"><g
         id="g88"><g
           clip-path="url(#clipPath70)"
           id="g86"><g
             id="g84"><g
               id="g82"><path
                 d="M -32768,32767 H 32767 V -32768 H -32768 Z"
                 style="fill:url(#radialGradient76);stroke:none"
                 id="path80"
                 inkscape:connector-curvature="0" /></g></g></g></g></mask><radialGradient
       fx="0"
       fy="0"
       cx="0"
       cy="0"
       r="1"
       gradientUnits="userSpaceOnUse"
       gradientTransform="matrix(70.551926,0,0,-564.41541,185.5,132.83997)"
       spreadMethod="pad"
       id="radialGradient98"><stop
         style="stop-opacity:1;stop-color:#eec918"
         offset="0"
         id="stop94" /><stop
         style="stop-opacity:1;stop-color:#e4b522"
         offset="1"
         id="stop96" /></radialGradient><clipPath
       clipPathUnits="userSpaceOnUse"
       id="clipPath108"><path
         d="M 0,294 H 416 V 0 H 0 Z"
         id="path106"
         inkscape:connector-curvature="0" /></clipPath><clipPath
       clipPathUnits="userSpaceOnUse"
       id="clipPath160"><path
         d="M 0,294 H 416 V 0 H 0 Z"
         id="path158"
         inkscape:connector-curvature="0" /></clipPath><clipPath
       clipPathUnits="userSpaceOnUse"
       id="clipPath220"><path
         d="M 0,294 H 416 V 0 H 0 Z"
         id="path218"
         inkscape:connector-curvature="0" /></clipPath></defs><sodipodi:namedview
     pagecolor="#ffffff"
     bordercolor="#666666"
     borderopacity="1"
     objecttolerance="10"
     gridtolerance="10"
     guidetolerance="10"
     inkscape:pageopacity="0"
     inkscape:pageshadow="2"
     inkscape:window-width="1920"
     inkscape:window-height="1016"
     id="namedview4"
     showgrid="false"
     inkscape:zoom="2"
     inkscape:cx="280.15538"
     inkscape:cy="196"
     inkscape:window-x="0"
     inkscape:window-y="27"
     inkscape:window-maximized="1"
     inkscape:current-layer="g10" /><g
     id="g10"
     inkscape:groupmode="layer"
     inkscape:label="Background"
     transform="matrix(1.3333333,0,0,-1.3333333,0,392)"><g
       id="g12"><g
         id="g14"
         clip-path="url(#clipPath18)"><g
           id="g20"
           transform="translate(292.5335,102.1654)"><path
             d="m 0,0 c 0.5,-6.25 -40.667,-14.352 -97.75,-14.067 -50.533,0.252 -98.167,4.701 -98.167,13.701 0,9 35.584,8.966 35.584,8.966 0,0 -27.584,-2.861 -27.584,-8.633 0,-6.75 54.317,-12.034 89.567,-12.284 35.25,-0.25 91.267,5.817 91.267,12.317 0,6.021 -21.084,8.017 -21.084,8.017 C -28.167,8.017 -0.5,6.25 0,0"
             style="fill:#231f20;fill-opacity:1;fill-rule:nonzero;stroke:none"
             id="path22"
             inkscape:connector-curvature="0" /></g><g
           id="g24"
           transform="translate(292.5335,102.1654)"><path
             d="m 0,0 c 0.5,-6.25 -40.667,-14.352 -97.75,-14.067 -50.533,0.252 -98.167,4.701 -98.167,13.701 0,9 35.584,8.966 35.584,8.966 0,0 -27.584,-2.861 -27.584,-8.633 0,-6.75 54.317,-12.034 89.567,-12.284 35.25,-0.25 91.267,5.817 91.267,12.317 0,6.021 -21.084,8.017 -21.084,8.017 C -28.167,8.017 -0.5,6.25 0,0 Z"
             style="fill:none;stroke:#231f20;stroke-width:0.25;stroke-linecap:butt;stroke-linejoin:miter;stroke-miterlimit:10;stroke-dasharray:none;stroke-opacity:1"
             id="path26"
             inkscape:connector-curvature="0" /></g><g
           id="g28"
           transform="translate(303.3333,109.8637)"><path
             d="m 0,0 c 0,0 26.885,-1.928 27,-8.65 0.167,-9.779 -41.357,-14.554 -41.357,-14.554 0,0 38.024,6.441 38.024,14.554 C 23.667,-2.927 0,0 0,0"
             style="fill:#231f20;fill-opacity:1;fill-rule:nonzero;stroke:none"
             id="path30"
             inkscape:connector-curvature="0" /></g><g
           id="g32"
           transform="translate(303.3333,109.8637)"><path
             d="m 0,0 c 0,0 26.885,-1.928 27,-8.65 0.167,-9.779 -41.357,-14.554 -41.357,-14.554 0,0 38.024,6.441 38.024,14.554 C 23.667,-2.927 0,0 0,0 Z"
             style="fill:none;stroke:#231f20;stroke-width:0.25;stroke-linecap:butt;stroke-linejoin:miter;stroke-miterlimit:10;stroke-dasharray:none;stroke-opacity:1"
             id="path34"
             inkscape:connector-curvature="0" /></g><g
           id="g36"
           transform="translate(90.027,109.6472)"><path
             d="m 0,0 c 0,0 -28.371,-1.928 -28.492,-8.65 -0.176,-9.779 43.642,-14.554 43.642,-14.554 0,0 -40.124,6.441 -40.124,14.554 C -24.974,-2.927 0,0 0,0"
             style="fill:#231f20;fill-opacity:1;fill-rule:nonzero;stroke:none"
             id="path38"
             inkscape:connector-curvature="0" /></g><g
           id="g40"
           transform="translate(90.027,109.6472)"><path
             d="m 0,0 c 0,0 -28.371,-1.928 -28.492,-8.65 -0.176,-9.779 43.642,-14.554 43.642,-14.554 0,0 -40.124,6.441 -40.124,14.554 C -24.974,-2.927 0,0 0,0 Z"
             style="fill:none;stroke:#231f20;stroke-width:0.25;stroke-linecap:butt;stroke-linejoin:miter;stroke-miterlimit:10;stroke-dasharray:none;stroke-opacity:1"
             id="path42"
             inkscape:connector-curvature="0" /></g></g></g><g
       id="g44"><g
         id="g46"
         clip-path="url(#clipPath50)"><g
           id="g52"
           transform="translate(234.6667,228.6667)"><path
             d="m 0,0 c 0,0 -13,-16 -12.667,-30.333 0.334,-14.334 0.792,-22.98 10.73,-31.824 C 8,-71 -17.37,-49.704 -56.333,-47.333 -100.167,-44.667 -143,-60.667 -143,-60.667 c 0,0 6.296,-47.909 62.167,-64.166 40.666,-11.834 76.5,-2.967 94.666,0.5 C 32,-120.867 43,-98.333 45,-84.667 47,-71 39,-60.5 31.333,-54.5 c -6.499,5.086 1.085,13.9 7.167,14 10.167,0.167 18.327,6.579 19.5,14.5 1.333,9 -2.667,21.15 -8,23.816 C 44.667,0.483 23,16.333 0,0"
             style="fill:#ffde17;fill-opacity:1;fill-rule:nonzero;stroke:none"
             id="path54"
             inkscape:connector-curvature="0" /></g></g></g><g
       id="g56"><g
         id="g58"
         clip-path="url(#clipPath62)"><g
           id="g64"><g
             id="g66" /><g
             id="g90"
             mask="url(#mask78)"><g
               id="g92"><path
                 d="m 139,109.333 c 39.333,-18.666 95.833,-9.5 110.333,-5.666 v 0 C 267.5,112 277.75,123.75 279,142.75 v 0 c -8.75,-27 -65.669,-35.592 -105.666,-25.083 v 0 C 111.167,134 101.75,153 92,167.666 v 0 c 0,0 7.667,-39.666 47,-58.333"
                 style="fill:url(#radialGradient98);stroke:none"
                 id="path100"
                 inkscape:connector-curvature="0" /></g></g></g></g></g><g
       id="g102"><g
         id="g104"
         clip-path="url(#clipPath108)"><g
           id="g110"
           transform="translate(242.5,159)"><path
             d="m 0,0 c 0,0 -18,18.25 -16,40.25 2,22 25.5,27.75 36.75,26 11.25,-1.75 24.75,-7 28,-9.5 0,5.75 -4.5,9.699 -4.5,9.699 0,0 -17,10.868 -30.75,10.618 C -0.25,76.817 -12.723,68.911 -17.25,55.25 -31.5,12.25 0,0 0,0"
             style="fill:#e4b522;fill-opacity:1;fill-rule:nonzero;stroke:none"
             id="path112"
             inkscape:connector-curvature="0" /></g><g
           id="g114"
           transform="translate(282.75,189.75)"><path
             d="m 0,0 c 0,0 16.375,-3.625 20.875,-3.875 4.5,-0.25 -7.125,2 -15.125,8.75 C 3.25,2.5 0,0 0,0"
             style="fill:#f7931d;fill-opacity:1;fill-rule:nonzero;stroke:none"
             id="path116"
             inkscape:connector-curvature="0" /></g><g
           id="g118"
           transform="translate(292.75,211.75)"><path
             d="m 0,0 c 0,0 16.25,-16.25 30,-25.25 1.375,-3 1.875,-0.875 0.25,-2.75 -1.625,-1.875 -12.5,-0.75 -34.5,9.5 C 0,-6.75 0.75,-16.25 0,0"
             style="fill:#f7931d;fill-opacity:1;fill-rule:nonzero;stroke:none"
             id="path120"
             inkscape:connector-curvature="0" /></g><g
           id="g122"
           transform="translate(230.2835,170.0164)"><path
             d="m 0,0 c -11.25,13.417 -8.926,45.083 6.781,58.624 7.591,6.545 17.663,7.935 27.164,5.586 9.652,-2.387 21.662,-6.967 25.715,-16.83 2.426,-5.902 2.261,-13.243 -0.498,-18.959 -1.66,-3.44 -4.871,-6.768 -8.526,-8.022 C 48.481,19.66 45.884,19.894 43.629,19.579 39.562,19.011 35.838,16.674 33.701,13.141 32.186,10.637 30.112,6.295 33,3.769 c 3.336,-2.919 6.977,-4.108 9.317,-7.925 10.049,-16.394 4.65,-40.86 -9.799,-53.324 -3.199,-2.759 -6.838,-5.22 -10.796,-6.738 -1.369,-0.525 -4.478,-3.196 -2.662,-2.463 23.672,9.548 42.465,35.506 25.646,62.449 -2.732,4.376 -4.953,6.207 -8.656,9.448 -4.123,3.607 0.641,9.907 4.401,11.286 2.323,0.852 5.397,0.542 7.826,0.758 4.568,0.406 7.357,2.598 10.26,5.907 6.449,7.349 7.364,19.551 2.359,27.587 C 56.083,58.484 48.225,61.184 40.028,64.1 31.605,67.096 22.767,68.363 14.257,64.891 6.595,61.765 1.575,58.003 -2.761,51.05 -12.27,35.8 -14.533,13.984 -2.773,-0.06 c 1.103,-1.318 2.777,-1.477 1.99,-0.123 z"
             style="fill:#231f20;fill-opacity:1;fill-rule:nonzero;stroke:none"
             id="path124"
             inkscape:connector-curvature="0" /></g><g
           id="g126"
           transform="translate(226.5523,106.5679)"><path
             d="m 0,0 c 16.992,5.036 23.058,19.848 22.118,36.673 -0.547,9.789 -6.042,18.365 -13.672,24.026 -9.998,7.416 -21.219,10.133 -32.765,12.882 -36.964,8.799 -75.093,1.652 -110.31,-10.643 -0.898,-0.314 -1.923,0.411 -1.295,-2.244 2.585,-10.923 7.123,-22.02 13.786,-30.906 5.55,-7.401 21.232,-25.472 47.403,-33.145 40.516,-11.878 83.683,-3.677 97.683,-0.011 0.133,0.035 6.203,3.702 2.333,2.55 -10.083,-3 -51.944,-12.434 -98.984,0.206 -8.849,2.377 -18.517,7.981 -26.598,14.183 -7.598,5.831 -15.077,11.95 -20.85,19.649 -6.246,8.33 -11.094,18.891 -12.691,29.263 -0.432,-0.747 -0.864,-1.495 -1.295,-2.243 40.251,14.442 78.938,15.023 97.399,11.766 C -13.235,67.682 7.753,59.911 14.923,48.928 20.816,39.901 21.346,28.148 18.064,18.119 15.363,9.867 8.517,5.071 0.508,2.698 -0.56,2.381 -1.448,-0.429 0,0"
             style="fill:#231f20;fill-opacity:1;fill-rule:nonzero;stroke:none"
             id="path128"
             inkscape:connector-curvature="0" /></g><g
           id="g130"
           transform="translate(293.6667,213.1667)"><path
             d="m 0,0 c 11,-15.333 31.667,-25.5 31.667,-29.167 0,-3.666 -3,-2.666 -4.667,-2.5 -4.325,0.433 -25.333,6.167 -33.333,10.5 -1.144,1.733 1.658,4.901 1.833,3.5 0.5,-4 25.226,-12.252 30.5,-11.666 1.5,0.166 3.5,1.333 1.333,3.333 -3.5,2.833 -20.666,12.833 -27.5,20.333 C -0.167,-2.667 0,0 0,0"
             style="fill:#231f20;fill-opacity:1;fill-rule:nonzero;stroke:none"
             id="path132"
             inkscape:connector-curvature="0" /></g><g
           id="g134"
           transform="translate(302.2773,197.7699)"><path
             d="m 0,0 c -0.202,-0.851 -1.273,-1.326 -2.392,-1.061 -1.12,0.266 -1.864,1.17 -1.663,2.021 0.202,0.851 1.273,1.326 2.393,1.061 C -0.543,1.756 0.202,0.851 0,0"
             style="fill:#231f20;fill-opacity:1;fill-rule:nonzero;stroke:none"
             id="path136"
             inkscape:connector-curvature="0" /></g><g
           id="g138"
           transform="translate(302.2773,197.7699)"><path
             d="m 0,0 c -0.202,-0.851 -1.273,-1.326 -2.392,-1.061 -1.12,0.266 -1.864,1.17 -1.663,2.021 0.202,0.851 1.273,1.326 2.393,1.061 C -0.543,1.756 0.202,0.851 0,0 Z"
             style="fill:none;stroke:#231f20;stroke-width:1;stroke-linecap:butt;stroke-linejoin:miter;stroke-miterlimit:10;stroke-dasharray:none;stroke-opacity:1"
             id="path140"
             inkscape:connector-curvature="0" /></g><g
           id="g142"
           transform="translate(280,213.8364)"><path
             d="m 0,0 c 0,-3.091 -2.537,-5.597 -5.667,-5.597 -3.129,0 -5.666,2.506 -5.666,5.597 0,3.091 2.537,5.597 5.666,5.597 C -2.537,5.597 0,3.091 0,0"
             style="fill:#231f20;fill-opacity:1;fill-rule:nonzero;stroke:none"
             id="path144"
             inkscape:connector-curvature="0" /></g><g
           id="g146"
           transform="translate(280,213.8364)"><path
             d="m 0,0 c 0,-3.091 -2.537,-5.597 -5.667,-5.597 -3.129,0 -5.666,2.506 -5.666,5.597 0,3.091 2.537,5.597 5.666,5.597 C -2.537,5.597 0,3.091 0,0 Z"
             style="fill:none;stroke:#231f20;stroke-width:1;stroke-linecap:butt;stroke-linejoin:miter;stroke-miterlimit:10;stroke-dasharray:none;stroke-opacity:1"
             id="path148"
             inkscape:connector-curvature="0" /></g><g
           id="g150"
           transform="translate(282.1667,188.1667)"><path
             d="M 0,0 C 0,0 23.167,-3.5 26,-3.333 28.833,-3.167 24,-2.5 24,-2.5 24,-2.5 4.95,0.801 2.283,2.301 -0.383,3.801 0,0 0,0"
             style="fill:#231f20;fill-opacity:1;fill-rule:nonzero;stroke:none"
             id="path152"
             inkscape:connector-curvature="0" /></g></g></g><g
       id="g4810"><g
         transform="translate(165.7165,174.6004)"
         id="g162"><path
           inkscape:connector-curvature="0"
           id="path164"
           style="fill:#1b75bc;fill-opacity:1;fill-rule:nonzero;stroke:none"
           d="m 0,0 c 0,0 -28.717,-22.934 -27.717,-32.934 1,-10 39.667,-40 51.667,-40 12,0 31.333,33.667 27.717,41.901 C 46.912,-20.209 10.667,0.417 0,0" /></g><g
         transform="translate(165.7165,174.6004)"
         id="g166"><path
           inkscape:connector-curvature="0"
           id="path168"
           style="fill:none;stroke:#231f20;stroke-width:0.25;stroke-linecap:butt;stroke-linejoin:miter;stroke-miterlimit:10;stroke-dasharray:none;stroke-opacity:1"
           d="m 0,0 c 0,0 -28.717,-22.934 -27.717,-32.934 1,-10 39.667,-40 51.667,-40 12,0 31.333,33.667 27.717,41.901 C 46.912,-20.209 10.667,0.417 0,0 Z" /></g><g
         transform="translate(147.3333,157.6667)"
         id="g170"><path
           inkscape:connector-curvature="0"
           id="path172"
           style="fill:#075a8f;fill-opacity:1;fill-rule:nonzero;stroke:none"
           d="m 0,0 c 0,0 -10.667,-11.333 -9.333,-16 1.333,-4.667 30.642,-39.124 51.666,-40 8,-0.333 16,9.667 19.334,16 C 15.333,-33.333 0,0 0,0" /></g><g
         transform="translate(203.3333,177.6667)"
         id="g174"><path
           inkscape:connector-curvature="0"
           id="path176"
           style="fill:#1b75bc;fill-opacity:1;fill-rule:nonzero;stroke:none"
           d="M 0,0 C 0,0 -19.333,-9 -14.667,-12.667 -10,-16.333 -0.333,-22.667 4.667,-25 7,-19 8.083,-12.417 15.042,-5.542 6,1 0,0 0,0" /></g><g
         transform="translate(189.5777,111.9005)"
         id="g178"><path
           inkscape:connector-curvature="0"
           id="path180"
           style="fill:#ffffff;fill-opacity:1;fill-rule:nonzero;stroke:none"
           d="M 0,0 C -0.921,-1.309 -2.54,-1.767 -3.615,-1.024 L -41.271,25 c -1.076,0.744 -1.201,2.407 -0.28,3.716 l 17.048,24.227 c 0.921,1.309 2.54,1.768 3.615,1.024 L 16.768,27.943 c 1.076,-0.743 1.201,-2.407 0.28,-3.716 z" /></g><g
         transform="translate(189.5777,111.9005)"
         id="g182"><path
           inkscape:connector-curvature="0"
           id="path184"
           style="fill:none;stroke:#231f20;stroke-width:2;stroke-linecap:butt;stroke-linejoin:miter;stroke-miterlimit:10;stroke-dasharray:none;stroke-opacity:1"
           d="M 0,0 C -0.921,-1.309 -2.54,-1.767 -3.615,-1.024 L -41.271,25 c -1.076,0.744 -1.201,2.407 -0.28,3.716 l 17.048,24.227 c 0.921,1.309 2.54,1.768 3.615,1.024 L 16.768,27.943 c 1.076,-0.743 1.201,-2.407 0.28,-3.716 z" /></g><g
         transform="translate(189.5777,111.9005)"
         id="g186"><path
           inkscape:connector-curvature="0"
           id="path188"
           style="fill:#ffffff;fill-opacity:1;fill-rule:nonzero;stroke:#231f20;stroke-width:2;stroke-linecap:butt;stroke-linejoin:miter;stroke-miterlimit:10;stroke-dasharray:none;stroke-opacity:1"
           d="M 0,0 -5.342,22.55" /></g><g
         transform="translate(147.3207,139.5835)"
         id="g190"><path
           inkscape:connector-curvature="0"
           id="path192"
           style="fill:#ffffff;fill-opacity:1;fill-rule:nonzero;stroke:#231f20;stroke-width:2;stroke-linecap:butt;stroke-linejoin:miter;stroke-miterlimit:10;stroke-dasharray:none;stroke-opacity:1"
           d="M 0,0 23.867,3.193" /></g><g
         transform="translate(166.2064,165.956)"
         id="g194"><path
           inkscape:connector-curvature="0"
           id="path196"
           style="fill:#ffffff;fill-opacity:1;fill-rule:nonzero;stroke:#231f20;stroke-width:2;stroke-linecap:butt;stroke-linejoin:miter;stroke-miterlimit:10;stroke-dasharray:none;stroke-opacity:1"
           d="m 0,0 c 0,0 3.827,-26.401 8.276,-29.972 4.449,-3.572 28.271,0.436 32.305,1.885" /></g><g
         transform="translate(165.5,175.75)"
         id="g198"><path
           inkscape:connector-curvature="0"
           id="path200"
           style="fill:#231f20;fill-opacity:1;fill-rule:nonzero;stroke:none"
           d="M 0,0 C -4.25,0 -31.25,-23.75 -28.5,-35.5 -25.75,-47.25 10,-77 26,-75.5 42,-74 55,-40.5 53.25,-32.25 51.5,-24 9.134,1.673 0,-0.25 -0.82,-0.423 -2.171,-3.066 0.25,-2.25 5.949,-0.33 52.948,-26.14 51.5,-34 49.75,-43.5 38.75,-68.75 26.25,-71.5 13.75,-74.25 -21.75,-44.75 -25,-35.75 -28.25,-26.75 0.5,-2 0.5,-2 Z" /></g><g
         transform="translate(200.75,178)"
         id="g202"><path
           inkscape:connector-curvature="0"
           id="path204"
           style="fill:#231f20;fill-opacity:1;fill-rule:nonzero;stroke:none"
           d="m 0,0 c -8.083,-2.417 -13.1,-11 -13.1,-11 l 3.1,-2.75 c 0,0 3.25,9.75 13.734,12.5 C 2,-0.417 1.917,-0.917 0,0" /></g><g
         transform="translate(218.375,172.125)"
         id="g206"><path
           inkscape:connector-curvature="0"
           id="path208"
           style="fill:#231f20;fill-opacity:1;fill-rule:nonzero;stroke:none"
           d="m 0,0 c -4.375,-2.375 -9.875,-9.25 -11.875,-17.625 2.25,-2.167 3.75,-2.75 3.75,-2.75 0,0 1.25,13.125 10.25,19.25 C 0.375,0.625 1.667,-0.5 0,0" /></g></g><g
       id="g210"
       transform="translate(226.5523,106.5679)"><path
         d="m 0,0 c 16.992,5.036 23.058,19.848 22.118,36.673 -0.547,9.789 -6.042,18.365 -13.672,24.026 -9.998,7.416 -21.219,10.133 -32.765,12.882 -36.964,8.799 -75.093,1.652 -110.31,-10.643 -0.898,-0.314 -1.923,0.411 -1.295,-2.244 2.585,-10.923 7.123,-22.02 13.786,-30.906 5.55,-7.401 21.232,-25.472 47.403,-33.145 40.516,-11.878 83.683,-3.677 97.683,-0.011 0.133,0.035 6.203,3.702 2.333,2.55 -10.083,-3 -51.944,-12.434 -98.984,0.206 -8.849,2.377 -18.517,7.981 -26.598,14.183 -7.598,5.831 -15.077,11.95 -20.85,19.649 -6.246,8.33 -11.094,18.891 -12.691,29.263 -0.432,-0.747 -0.864,-1.495 -1.295,-2.243 40.251,14.442 78.938,15.023 97.399,11.766 C -13.235,67.682 7.753,59.911 14.923,48.928 20.816,39.901 21.346,28.148 18.064,18.119 15.363,9.867 8.517,5.071 0.508,2.698 -0.56,2.381 -1.448,-0.429 0,0"
         style="fill:#231f20;fill-opacity:1;fill-rule:nonzero;stroke:none"
         id="path212"
         inkscape:connector-curvature="0" /></g><g
       id="g214"><g
         id="g216"
         clip-path="url(#clipPath220)"><g
           id="g222"
           transform="translate(289.5448,230.0004)"><path
             d="m 0,0 17.293,-9.354 c 0,0 -12.026,-11.869 -41.346,7.074 C -1.022,-1.572 0,0 0,0"
             style="fill:#1b75bc;fill-opacity:1;fill-rule:nonzero;stroke:#231f20;stroke-width:0.25;stroke-linecap:butt;stroke-linejoin:miter;stroke-miterlimit:10;stroke-dasharray:none;stroke-opacity:1"
             id="path224"
             inkscape:connector-curvature="0" /></g><g
           id="g226"
           transform="translate(277.8326,246.9006)"><path
             d="m 0,0 c 6.21,-3.459 12.184,-13.127 12.184,-16.822 0,-3.694 -59.861,-3.102 -59.861,-3.102 0,0 3.265,19.845 11.204,21.496 C -28.534,3.223 -6.21,3.459 0,0"
             style="fill:#1b75bc;fill-opacity:1;fill-rule:nonzero;stroke:none"
             id="path228"
             inkscape:connector-curvature="0" /></g><g
           id="g230"
           transform="translate(277.8326,246.9006)"><path
             d="m 0,0 c 6.21,-3.459 12.184,-13.127 12.184,-16.822 0,-3.694 -59.861,-3.102 -59.861,-3.102 0,0 3.265,19.845 11.204,21.496 C -28.534,3.223 -6.21,3.459 0,0 Z"
             style="fill:none;stroke:#231f20;stroke-width:0.25;stroke-linecap:butt;stroke-linejoin:miter;stroke-miterlimit:10;stroke-dasharray:none;stroke-opacity:1"
             id="path232"
             inkscape:connector-curvature="0" /></g><g
           id="g234"
           transform="translate(233.1004,228.2835)"><path
             d="M 0,0 H 27.25 C 27.25,0 16.701,-1.75 7.701,5 5.576,7.125 4.9,13.866 10.4,20.116 -1.6,17.717 0,0 0,0"
             style="fill:#075a8f;fill-opacity:1;fill-rule:nonzero;stroke:none"
             id="path236"
             inkscape:connector-curvature="0" /></g><g
           id="g238"
           transform="translate(279.8333,228)"><path
             d="M 0,0 C 0,0 2.75,-6.75 20,-10 10.833,-12.667 -3.617,-7.4 -12.367,-0.65 -3.208,0.25 1.542,1 1.542,1 Z"
             style="fill:#075a8f;fill-opacity:1;fill-rule:nonzero;stroke:none"
             id="path240"
             inkscape:connector-curvature="0" /></g><g
           id="g242"
           transform="translate(230.0826,225.9701)"><path
             d="m 0,0 c 0,0 26.265,-0.607 57.646,2.014 2.297,0.192 2.934,2.096 2.934,2.096 0,0 -6.648,14.986 -12.098,17.921 -5.45,2.935 -32.109,5.051 -39.236,0.439 -7.127,-4.612 -9.56,-22.387 -9.56,-22.387 0,0 6.349,1.914 6.718,3.135 -3.459,0.996 -0.584,15.667 4.938,17.681 6.957,2.537 29.531,3.04 35.82,-1.572 C 53.45,14.716 58.441,5.619 56.345,4.361 54.249,3.104 1.489,3.291 1.489,3.291 Z"
             style="fill:#231f20;fill-opacity:1;fill-rule:nonzero;stroke:none"
             id="path244"
             inkscape:connector-curvature="0" /></g><g
           id="g246"
           transform="translate(230.0826,225.9701)"><path
             d="m 0,0 c 0,0 26.265,-0.607 57.646,2.014 2.297,0.192 2.934,2.096 2.934,2.096 0,0 -6.648,14.986 -12.098,17.921 -5.45,2.935 -32.109,5.051 -39.236,0.439 -7.127,-4.612 -9.56,-22.387 -9.56,-22.387 0,0 6.349,1.914 6.718,3.135 -3.459,0.996 -0.584,15.667 4.938,17.681 6.957,2.537 29.531,3.04 35.82,-1.572 C 53.45,14.716 58.441,5.619 56.345,4.361 54.249,3.104 1.489,3.291 1.489,3.291 Z"
             style="fill:none;stroke:#231f20;stroke-width:0.25;stroke-linecap:butt;stroke-linejoin:miter;stroke-miterlimit:10;stroke-dasharray:none;stroke-opacity:1"
             id="path248"
             inkscape:connector-curvature="0" /></g><g
           id="g250"
           transform="translate(289.34,230.9492)"><path
             d="m 0,0 c 0.585,-0.647 -0.378,-1.487 0.65,-1.866 1.992,-0.734 14.963,-7.935 14.642,-8.12 -5.346,-3.065 -12.754,-6.71 -36.179,6.338 -0.972,0.542 -2.755,-0.381 -3.826,0.105 C 7.701,-22.707 17.97,-12.582 18.52,-10.657 18.363,-9.753 0,0 0,0"
             style="fill:#231f20;fill-opacity:1;fill-rule:nonzero;stroke:none"
             id="path252"
             inkscape:connector-curvature="0" /></g><g
           id="g254"
           transform="translate(289.34,230.9492)"><path
             d="m 0,0 c 0.585,-0.647 -0.378,-1.487 0.65,-1.866 1.992,-0.734 14.963,-7.935 14.642,-8.12 -5.346,-3.065 -12.754,-6.71 -36.179,6.338 -0.972,0.542 -2.755,-0.381 -3.826,0.105 C 7.701,-22.707 17.97,-12.582 18.52,-10.657 18.363,-9.753 0,0 0,0 Z"
             style="fill:none;stroke:#231f20;stroke-width:0.25;stroke-linecap:butt;stroke-linejoin:miter;stroke-miterlimit:10;stroke-dasharray:none;stroke-opacity:1"
             id="path256"
             inkscape:connector-curvature="0" /></g></g></g></g><g
     inkscape:groupmode="layer"
     id="layer2"
     inkscape:label="Satchel" /></svg>