<?xml version="1.0" encoding="UTF-8" standalone="no"?>
<svg
   xmlns:dc="http://purl.org/dc/elements/1.1/"
   xmlns:cc="http://creativecommons.org/ns#"
   xmlns:rdf="http://www.w3.org/1999/02/22-rdf-syntax-ns#"
   xmlns:svg="http://www.w3.org/2000/svg"
   xmlns="http://www.w3.org/2000/svg"
   width="128"
   height="128"
   viewBox="0 0 128 128"
   id="svg2"
   version="1.1">
  <defs
     id="defs4" />
  <metadata
     id="metadata7">
    <rdf:RDF>
      <cc:Work
         rdf:about="">
        <dc:format>image/svg+xml</dc:format>
        <dc:type
           rdf:resource="http://purl.org/dc/dcmitype/StillImage" />
        <dc:title></dc:title>
      </cc:Work>
    </rdf:RDF>
  </metadata>
  <g
     id="text4486"
     style="font-style:normal;font-variant:normal;font-weight:normal;font-stretch:normal;font-size:80px;line-height:25px;font-family:'DeJaVu Sans';-inkscape-font-specification:'DeJaVu Sans';letter-spacing:0px;word-spacing:0px;fill:#000000;fill-opacity:1;stroke:none;stroke-width:1px;stroke-linecap:butt;stroke-linejoin:miter;stroke-opacity:1"
     aria-label="N">
    <path
       id="path4500"
       style="font-size:26.66666603px"
       d="m 56.854477,6.5937937 h 3.541666 L 69.015935,22.856814 V 6.5937937 h 2.552083 V 26.033897 H 68.026352 L 59.40656,9.770877 v 16.26302 h -2.552083 z" />
  </g>
  <g
     id="text4490"
     style="font-style:normal;font-variant:normal;font-weight:normal;font-stretch:normal;font-size:80px;line-height:25px;font-family:'DeJaVu Sans';-inkscape-font-specification:'DeJaVu Sans';letter-spacing:0px;word-spacing:0px;fill:#000000;fill-opacity:1;stroke:none;stroke-width:1px;stroke-linecap:butt;stroke-linejoin:miter;stroke-opacity:1"
     aria-label="S">
    <path
       id="path4503"
       style="font-size:26.66666603px"
       d="m 68.508122,105.23181 v 2.56511 q -1.497395,-0.71615 -2.82552,-1.06771 -1.328125,-0.35156 -2.565104,-0.35156 -2.148438,0 -3.320313,0.83333 -1.158854,0.83333 -1.158854,2.36979 0,1.28907 0.768229,1.95313 0.78125,0.65104 2.942708,1.05469 l 1.588542,0.32552 q 2.942708,0.55989 4.335937,1.97916 1.40625,1.40625 1.40625,3.77604 0,2.82552 -1.901041,4.28386 -1.888021,1.45833 -5.546875,1.45833 -1.380208,0 -2.942708,-0.3125 -1.549479,-0.3125 -3.216146,-0.92448 v -2.70833 q 1.601562,0.89844 3.138021,1.35417 1.536458,0.45572 3.020833,0.45572 2.252604,0 3.476562,-0.88541 1.223959,-0.88542 1.223959,-2.52604 0,-1.43229 -0.885417,-2.23959 -0.872396,-0.80729 -2.877604,-1.21093 l -1.601563,-0.3125 q -2.942708,-0.58594 -4.257812,-1.83594 -1.315104,-1.25 -1.315104,-3.47656 0,-2.57813 1.809896,-4.0625 1.822916,-1.48438 5.01302,-1.48438 1.367188,0 2.786459,0.2474 1.41927,0.24739 2.903645,0.74218 z" />
  </g>
  <g
     id="text4494"
     style="font-style:normal;font-variant:normal;font-weight:normal;font-stretch:normal;font-size:80px;line-height:25px;font-family:'DeJaVu Sans';-inkscape-font-specification:'DeJaVu Sans';letter-spacing:0px;word-spacing:0px;fill:#000000;fill-opacity:1;stroke:none;stroke-width:1px;stroke-linecap:butt;stroke-linejoin:miter;stroke-opacity:1"
     aria-label="W">
    <path
       id="path4506"
       style="font-size:26.66666603px"
       d="M 5.1227061,56.593794 H 7.778956 l 4.088542,16.432291 4.07552,-16.432291 h 2.955729 l 4.088542,16.432291 4.075521,-16.432291 h 2.66927 L 24.849268,76.033897 H 21.541977 L 17.440414,59.158898 13.299789,76.033897 H 9.9924976 Z" />
  </g>
  <g
     id="text4498"
     style="font-style:normal;font-variant:normal;font-weight:normal;font-stretch:normal;font-size:80px;line-height:25px;font-family:'DeJaVu Sans';-inkscape-font-specification:'DeJaVu Sans';letter-spacing:0px;word-spacing:0px;fill:#000000;fill-opacity:1;stroke:none;stroke-width:1px;stroke-linecap:butt;stroke-linejoin:miter;stroke-opacity:1"
     aria-label="E">
    <path
       id="path4509"
       style="font-size:26.66666603px"
       d="m 110.85448,56.593794 h 12.29166 v 2.213541 h -9.66145 v 5.755209 h 9.25781 v 2.213541 h -9.25781 v 7.044271 h 9.89583 v 2.213541 h -12.52604 z" />
  </g>
</svg>
