<?xml version="1.0" standalone="no"?>
<!DOCTYPE svg PUBLIC "-//W3C//DTD SVG 20010904//EN"
 "http://www.w3.org/TR/2001/REC-SVG-20010904/DTD/svg10.dtd">
<svg version="1.0" xmlns="http://www.w3.org/2000/svg"
 width="640.000000pt" height="640.000000pt" viewBox="0 0 640.000000 640.000000"
 preserveAspectRatio="xMidYMid meet">
<metadata>
Created by potrace 1.11, written by Peter Selinger 2001-2013
</metadata>
<g transform="translate(0.000000,640.000000) scale(0.100000,-0.100000)"
fill="#000000" stroke="none">
<path d="M3038 5313 c-39 -3 -48 -8 -48 -23 0 -22 38 -313 46 -348 4 -22 5
-22 137 -16 623 31 1210 -312 1490 -872 57 -113 111 -267 139 -398 19 -86 22
-132 22 -306 0 -175 -3 -220 -22 -307 -70 -322 -210 -581 -437 -808 -126 -126
-243 -212 -389 -286 l-103 -53 76 -178 c42 -97 81 -178 86 -178 19 0 149 66
244 124 548 334 898 910 940 1550 35 518 -127 1014 -461 1411 -265 315 -632
543 -1033 641 -194 47 -456 65 -687 47z"/>
<path d="M5390 4829 c-85 -60 -156 -113 -158 -118 -2 -5 22 -47 52 -93 76
-117 178 -329 230 -478 37 -104 47 -124 63 -122 17 3 149 40 295 83 l67 20
-44 127 c-76 222 -168 414 -287 600 -33 50 -61 92 -62 91 0 0 -71 -50 -156
-110z"/>
<path d="M3032 4496 c-248 -47 -456 -157 -633 -335 -366 -365 -451 -903 -217
-1363 164 -321 459 -546 818 -624 113 -25 381 -25 488 -1 239 55 439 163 602
327 471 473 460 1230 -24 1688 -144 136 -327 237 -523 289 -82 21 -125 26
-268 29 -116 2 -193 -1 -243 -10z m413 -401 c87 -24 231 -96 300 -152 122
-100 209 -224 261 -378 36 -108 45 -276 19 -391 -67 -304 -289 -529 -602 -610
-97 -25 -273 -23 -377 5 -353 94 -597 405 -597 761 0 387 276 708 669 780 67
13 256 4 327 -15z"/>
<path d="M3144 3711 c-102 -25 -209 -114 -260 -216 -27 -55 -29 -69 -29 -170
0 -105 1 -113 33 -173 154 -296 576 -291 715 7 79 168 27 377 -121 486 -85 63
-231 91 -338 66z"/>
<path d="M522 3928 c-98 -449 -73 -981 69 -1422 41 -129 107 -296 116 -296 6
0 346 150 352 156 1 1 -15 50 -38 108 -167 427 -209 913 -116 1354 7 37 13 67
12 68 -6 3 -364 84 -373 84 -6 0 -16 -24 -22 -52z"/>
<path d="M1442 3293 l-164 -4 7 -67 c18 -186 39 -304 81 -448 l15 -52 177 59
c97 32 182 61 188 63 8 3 4 30 -13 87 -29 100 -53 245 -53 317 l0 52 -37 -2
c-21 -1 -111 -4 -201 -5z"/>
<path d="M5437 2360 c-55 -127 -170 -320 -273 -457 -127 -169 -378 -414 -522
-509 -3 -2 136 -199 205 -291 l24 -33 42 31 c247 178 494 441 677 719 91 139
258 467 244 479 -5 4 -74 34 -154 66 -80 32 -158 64 -175 71 l-30 12 -38 -88z"/>
</g>
</svg>
